<svg width="20" height="21" viewBox="0 0 20 21" fill="none" xmlns="http://www.w3.org/2000/svg">
<path d="M19.927 6.30344C19.8813 5.26806 19.7139 4.55626 19.474 3.93946C19.2266 3.28475 18.846 2.69859 18.3472 2.21131C17.8599 1.71645 17.2699 1.33192 16.6228 1.08836C16.0024 0.84851 15.2943 0.681078 14.259 0.635428C13.2159 0.585913 12.8847 0.574463 10.2391 0.574463C7.5935 0.574463 7.26235 0.585913 6.22311 0.631562C5.18774 0.677212 4.47593 0.844793 3.85929 1.08449C3.20443 1.33192 2.61827 1.71259 2.13099 2.21131C1.63613 2.69859 1.25175 3.28862 1.00804 3.93575C0.768188 4.55625 0.600756 5.2642 0.555106 6.29957C0.50559 7.34268 0.494141 7.67382 0.494141 10.3194C0.494141 12.965 0.50559 13.2962 0.55124 14.3354C0.59689 15.3708 0.764471 16.0826 1.00432 16.6994C1.25175 17.3541 1.63613 17.9403 2.13099 18.4275C2.61827 18.9224 3.2083 19.3069 3.85542 19.5505C4.47593 19.7903 5.18388 19.9578 6.2194 20.0034C7.25849 20.0492 7.58978 20.0605 10.2354 20.0605C12.881 20.0605 13.2121 20.0492 14.2514 20.0034C15.2868 19.9578 15.9986 19.7903 16.6152 19.5505C17.9248 19.0442 18.9601 18.0088 19.4665 16.6994C19.7062 16.0789 19.8737 15.3708 19.9194 14.3354C19.965 13.2962 19.9765 12.965 19.9765 10.3194C19.9765 7.67382 19.9726 7.34268 19.927 6.30344ZM18.1722 14.2593C18.1303 15.2109 17.9704 15.7248 17.8372 16.0674C17.5098 16.9163 16.836 17.5901 15.9871 17.9175C15.6445 18.0508 15.1269 18.2106 14.179 18.2524C13.1512 18.2982 12.8429 18.3095 10.243 18.3095C7.64302 18.3095 7.3309 18.2982 6.30683 18.2524C5.35517 18.2106 4.84128 18.0508 4.49868 17.9175C4.07624 17.7614 3.69171 17.514 3.37959 17.1904C3.05603 16.8744 2.8086 16.4938 2.65247 16.0713C2.51924 15.7287 2.35939 15.2109 2.3176 14.2632C2.27181 13.2354 2.26051 12.927 2.26051 10.327C2.26051 7.72706 2.27181 7.41494 2.3176 6.39102C2.35939 5.43936 2.51924 4.92547 2.65247 4.58287C2.8086 4.16028 3.05603 3.7759 3.38346 3.46363C3.69929 3.14007 4.07995 2.89264 4.50255 2.73666C4.84515 2.60343 5.36291 2.44358 6.3107 2.40164C7.33849 2.35599 7.64688 2.34454 10.2467 2.34454C12.8505 2.34454 13.1588 2.35599 14.1828 2.40164C15.1345 2.44358 15.6484 2.60343 15.991 2.73666C16.4134 2.89264 16.798 3.14007 17.1101 3.46363C17.4336 3.77961 17.6811 4.16028 17.8372 4.58287C17.9704 4.92547 18.1303 5.44308 18.1722 6.39102C18.2179 7.41881 18.2293 7.72706 18.2293 10.327C18.2293 12.927 18.2179 13.2315 18.1722 14.2593Z" fill="#FFD02B"/>
<path d="M10.2391 5.31371C7.47558 5.31371 5.23339 7.55576 5.23339 10.3194C5.23339 13.0831 7.47558 15.3251 10.2391 15.3251C13.0028 15.3251 15.2448 13.0831 15.2448 10.3194C15.2448 7.55576 13.0028 5.31371 10.2391 5.31371ZM10.2391 13.5665C8.44627 13.5665 6.99202 12.1124 6.99202 10.3194C6.99202 8.52645 8.44627 7.07235 10.2391 7.07235C12.0321 7.07235 13.4862 8.52645 13.4862 10.3194C13.4862 12.1124 12.0321 13.5665 10.2391 13.5665Z" fill="#FFD02B"/>
<path d="M16.6115 5.1158C16.6115 5.76114 16.0882 6.2844 15.4427 6.2844C14.7974 6.2844 14.2741 5.76114 14.2741 5.1158C14.2741 4.47031 14.7974 3.94719 15.4427 3.94719C16.0882 3.94719 16.6115 4.47031 16.6115 5.1158Z" fill="#FFD02B"/>
</svg>
