<svg width="26" height="26" viewBox="0 0 26 26" fill="none" xmlns="http://www.w3.org/2000/svg">
<path d="M25.5381 7.8588C25.4796 6.5327 25.2652 5.62101 24.958 4.83102C24.641 3.99246 24.1535 3.24171 23.5147 2.6176C22.8906 1.98378 22.1349 1.49127 21.3061 1.17932C20.5115 0.872119 19.6046 0.657671 18.2785 0.599203C16.9425 0.535783 16.5183 0.521118 13.1298 0.521118C9.74132 0.521118 9.31718 0.535783 7.98612 0.594251C6.66002 0.65272 5.74833 0.867358 4.95853 1.17436C4.11978 1.49127 3.36903 1.97883 2.74492 2.6176C2.1111 3.24171 1.61878 3.99742 1.30664 4.82626C0.999438 5.62101 0.784991 6.52774 0.726522 7.85385C0.663102 9.18987 0.648438 9.614 0.648438 13.0025C0.648438 16.391 0.663102 16.8151 0.721571 18.1462C0.780039 19.4723 0.994677 20.384 1.30187 21.174C1.61878 22.0125 2.1111 22.7633 2.74492 23.3874C3.36903 24.0212 4.12473 24.5137 4.95358 24.8257C5.74833 25.1329 6.65506 25.3473 7.98136 25.4058C9.31223 25.4645 9.73656 25.4789 13.1251 25.4789C16.5136 25.4789 16.9377 25.4645 18.2688 25.4058C19.5949 25.3473 20.5065 25.1329 21.2963 24.8257C22.9736 24.1772 24.2998 22.8511 24.9482 21.174C25.2552 20.3792 25.4699 19.4723 25.5284 18.1462C25.5868 16.8151 25.6015 16.391 25.6015 13.0025C25.6015 9.614 25.5965 9.18987 25.5381 7.8588ZM23.2906 18.0487C23.2368 19.2676 23.0321 19.9258 22.8615 20.3646C22.4421 21.4518 21.5792 22.3148 20.4919 22.7342C20.0531 22.9048 19.3901 23.1095 18.176 23.163C16.8596 23.2217 16.4648 23.2362 13.1348 23.2362C9.80474 23.2362 9.40498 23.2217 8.09335 23.163C6.87446 23.1095 6.21627 22.9048 5.77747 22.7342C5.2364 22.5342 4.74389 22.2173 4.34413 21.8028C3.92971 21.3981 3.6128 20.9106 3.41283 20.3695C3.24219 19.9307 3.03745 19.2676 2.98394 18.0536C2.92528 16.7372 2.9108 16.3422 2.9108 13.0122C2.9108 9.68218 2.92528 9.28242 2.98394 7.97098C3.03745 6.7521 3.24219 6.0939 3.41283 5.6551C3.6128 5.11384 3.92971 4.62152 4.34909 4.22158C4.7536 3.80716 5.24116 3.49025 5.78242 3.29046C6.22122 3.11982 6.88437 2.91508 8.0983 2.86138C9.4147 2.80291 9.80969 2.78824 13.1395 2.78824C16.4745 2.78824 16.8693 2.80291 18.181 2.86138C19.3998 2.91508 20.058 3.11982 20.4968 3.29046C21.0379 3.49025 21.5304 3.80716 21.9302 4.22158C22.3446 4.62628 22.6615 5.11384 22.8615 5.6551C23.0321 6.0939 23.2368 6.75686 23.2906 7.97098C23.349 9.28738 23.3637 9.68218 23.3637 13.0122C23.3637 16.3422 23.349 16.7323 23.2906 18.0487Z" fill="white"/>
<path d="M13.1298 6.59116C9.59029 6.59116 6.71848 9.46278 6.71848 13.0025C6.71848 16.5422 9.59029 19.4138 13.1298 19.4138C16.6695 19.4138 19.5412 16.5422 19.5412 13.0025C19.5412 9.46278 16.6695 6.59116 13.1298 6.59116ZM13.1298 17.1614C10.8336 17.1614 8.97095 15.299 8.97095 13.0025C8.97095 10.706 10.8336 8.84363 13.1298 8.84363C15.4263 8.84363 17.2887 10.706 17.2887 13.0025C17.2887 15.299 15.4263 17.1614 13.1298 17.1614Z" fill="white"/>
<path d="M21.2916 6.33767C21.2916 7.16423 20.6214 7.83443 19.7946 7.83443C18.9681 7.83443 18.2979 7.16423 18.2979 6.33767C18.2979 5.51093 18.9681 4.84092 19.7946 4.84092C20.6214 4.84092 21.2916 5.51093 21.2916 6.33767Z" fill="white"/>
</svg>
