<svg width="50" height="40" viewBox="0 0 50 40" fill="none" xmlns="http://www.w3.org/2000/svg">
<path d="M48.4297 38.4945V38.5945H48.5219C48.5423 38.5945 48.5598 38.5896 48.5724 38.5818C48.584 38.5741 48.5908 38.5605 48.5908 38.544C48.5908 38.5275 48.584 38.5149 48.5724 38.5071C48.5598 38.4984 48.5423 38.4945 48.5219 38.4945H48.4297ZM48.5229 38.4246C48.5705 38.4246 48.6073 38.4353 48.6335 38.4567C48.6597 38.478 48.6723 38.5071 48.6723 38.544C48.6723 38.5751 48.6626 38.6003 48.6413 38.6207C48.6209 38.6401 48.5918 38.6527 48.553 38.6575L48.6753 38.7983H48.5802L48.4666 38.6585H48.4297V38.7983H48.3502V38.4246H48.5229ZM48.4986 38.9273C48.5423 38.9273 48.5831 38.9186 48.6199 38.9021C48.6578 38.8856 48.6908 38.8633 48.7189 38.8351C48.7471 38.807 48.7694 38.774 48.7859 38.7352C48.8014 38.6973 48.8101 38.6566 48.8101 38.6129C48.8101 38.5692 48.8014 38.5285 48.7859 38.4906C48.7694 38.4528 48.7471 38.4188 48.7189 38.3907C48.6908 38.3625 48.6578 38.3402 48.6199 38.3237C48.5831 38.3082 48.5423 38.3004 48.4986 38.3004C48.455 38.3004 48.4132 38.3082 48.3754 38.3237C48.3366 38.3402 48.3026 38.3625 48.2745 38.3907C48.2463 38.4188 48.224 38.4528 48.2085 38.4906C48.192 38.5285 48.1842 38.5692 48.1842 38.6129C48.1842 38.6566 48.192 38.6973 48.2085 38.7352C48.224 38.774 48.2463 38.807 48.2745 38.8351C48.3026 38.8633 48.3366 38.8856 48.3754 38.9021C48.4132 38.9186 48.455 38.9273 48.4986 38.9273ZM48.4986 38.2102C48.5559 38.2102 48.6083 38.2209 48.6588 38.2422C48.7083 38.2626 48.751 38.2917 48.7888 38.3286C48.8257 38.3645 48.8548 38.4072 48.8761 38.4567C48.8975 38.5052 48.9082 38.5576 48.9082 38.6129C48.9082 38.6682 48.8975 38.7206 48.8761 38.7691C48.8548 38.8177 48.8257 38.8604 48.7888 38.8972C48.751 38.9331 48.7083 38.9623 48.6588 38.9836C48.6083 39.005 48.5559 39.0156 48.4986 39.0156C48.4404 39.0156 48.387 39.005 48.3366 38.9836C48.2861 38.9623 48.2425 38.9331 48.2056 38.8972C48.1687 38.8604 48.1396 38.8177 48.1182 38.7691C48.0969 38.7206 48.0862 38.6682 48.0862 38.6129C48.0862 38.5576 48.0969 38.5052 48.1182 38.4567C48.1396 38.4072 48.1687 38.3645 48.2056 38.3286C48.2425 38.2917 48.2861 38.2626 48.3366 38.2422C48.387 38.2209 48.4404 38.2102 48.4986 38.2102ZM10.6903 36.7711C10.6903 36.0588 11.1571 35.4736 11.9198 35.4736C12.6486 35.4736 13.1406 36.0335 13.1406 36.7711C13.1406 37.5086 12.6486 38.0685 11.9198 38.0685C11.1571 38.0685 10.6903 37.4833 10.6903 36.7711ZM13.9713 36.7711V34.7448H13.0901V35.2368C12.8107 34.872 12.3866 34.6429 11.8102 34.6429C10.6738 34.6429 9.78296 35.5338 9.78296 36.7711C9.78296 38.0093 10.6738 38.8992 11.8102 38.8992C12.3866 38.8992 12.8107 38.6702 13.0901 38.3053V38.7973H13.9713V36.7711ZM43.7475 36.7711C43.7475 36.0588 44.2143 35.4736 44.977 35.4736C45.7068 35.4736 46.1978 36.0335 46.1978 36.7711C46.1978 37.5086 45.7068 38.0685 44.977 38.0685C44.2143 38.0685 43.7475 37.4833 43.7475 36.7711ZM47.0294 36.7711V33.1174H46.1473V35.2368C45.8678 34.872 45.4438 34.6429 44.8673 34.6429C43.731 34.6429 42.8402 35.5338 42.8402 36.7711C42.8402 38.0093 43.731 38.8992 44.8673 38.8992C45.4438 38.8992 45.8678 38.6702 46.1473 38.3053V38.7973H47.0294V36.7711ZM24.9088 35.4319C25.4765 35.4319 25.8414 35.788 25.9346 36.4149H23.8317C23.9258 35.8298 24.281 35.4319 24.9088 35.4319ZM24.9263 34.6429C23.7385 34.6429 22.9078 35.5076 22.9078 36.7711C22.9078 38.0598 23.7725 38.8992 24.9855 38.8992C25.5959 38.8992 26.1548 38.7468 26.6468 38.3315L26.215 37.6784C25.8754 37.9491 25.4426 38.1025 25.0359 38.1025C24.4683 38.1025 23.951 37.8395 23.8239 37.1097H26.8332C26.8419 37.0001 26.8506 36.8894 26.8506 36.7711C26.8419 35.5076 26.0617 34.6429 24.9263 34.6429ZM35.5659 36.7711C35.5659 36.0588 36.0327 35.4736 36.7954 35.4736C37.5242 35.4736 38.0162 36.0335 38.0162 36.7711C38.0162 37.5086 37.5242 38.0685 36.7954 38.0685C36.0327 38.0685 35.5659 37.4833 35.5659 36.7711ZM38.8469 36.7711V34.7448H37.9658V35.2368C37.6853 34.872 37.2622 34.6429 36.6858 34.6429C35.5494 34.6429 34.6586 35.5338 34.6586 36.7711C34.6586 38.0093 35.5494 38.8992 36.6858 38.8992C37.2622 38.8992 37.6853 38.6702 37.9658 38.3053V38.7973H38.8469V36.7711ZM30.5896 36.7711C30.5896 38.0006 31.4455 38.8992 32.7517 38.8992C33.3621 38.8992 33.7687 38.7633 34.2093 38.4159L33.7862 37.7036C33.4553 37.9414 33.1079 38.0685 32.7255 38.0685C32.022 38.0598 31.5047 37.5513 31.5047 36.7711C31.5047 35.9908 32.022 35.4823 32.7255 35.4736C33.1079 35.4736 33.4553 35.6007 33.7862 35.8385L34.2093 35.1262C33.7687 34.7788 33.3621 34.6429 32.7517 34.6429C31.4455 34.6429 30.5896 35.5415 30.5896 36.7711ZM41.9503 34.6429C41.4418 34.6429 41.1109 34.8807 40.8819 35.2368V34.7448H40.0085V38.7973H40.8906V36.5255C40.8906 35.855 41.1788 35.4823 41.7552 35.4823C41.9338 35.4823 42.1201 35.5076 42.3064 35.5842L42.5781 34.7536C42.3831 34.6769 42.1288 34.6429 41.9503 34.6429ZM18.3294 35.067C17.9053 34.7875 17.3211 34.6429 16.6768 34.6429C15.6501 34.6429 14.9892 35.1349 14.9892 35.9404C14.9892 36.6012 15.4812 37.0088 16.3876 37.1359L16.8039 37.1951C17.2872 37.2631 17.5152 37.3902 17.5152 37.6192C17.5152 37.9326 17.1931 38.1112 16.5914 38.1112C15.981 38.1112 15.5404 37.9161 15.2435 37.6871L14.8282 38.3732C15.3114 38.7294 15.9218 38.8992 16.5827 38.8992C17.753 38.8992 18.4313 38.348 18.4313 37.5765C18.4313 36.8642 17.8976 36.4916 17.0155 36.3645L16.6001 36.3043C16.2188 36.2538 15.9131 36.1781 15.9131 35.9064C15.9131 35.6095 16.2013 35.4319 16.6846 35.4319C17.2018 35.4319 17.7025 35.6269 17.948 35.7793L18.3294 35.067ZM29.6988 34.6429C29.1903 34.6429 28.8594 34.8807 28.6313 35.2368V34.7448H27.758V38.7973H28.6391V36.5255C28.6391 35.855 28.9273 35.4823 29.5037 35.4823C29.6823 35.4823 29.8686 35.5076 30.0549 35.5842L30.3266 34.7536C30.1316 34.6769 29.8773 34.6429 29.6988 34.6429ZM22.179 34.7448H20.738V33.5153H19.8471V34.7448H19.0252V35.5503H19.8471V37.3989C19.8471 38.3392 20.212 38.8992 21.2542 38.8992C21.6366 38.8992 22.0772 38.7808 22.3566 38.5857L22.1024 37.8307C21.8394 37.9831 21.5512 38.0598 21.3222 38.0598C20.8816 38.0598 20.738 37.788 20.738 37.3814V35.5503H22.179V34.7448ZM9.00372 38.7973V36.2538C9.00372 35.296 8.39333 34.6517 7.40933 34.6429C6.8921 34.6342 6.35837 34.7953 5.98476 35.364C5.70528 34.9147 5.26471 34.6429 4.64559 34.6429C4.21278 34.6429 3.78968 34.7701 3.45877 35.2446V34.7448H2.57666V38.7973H3.46653V36.5508C3.46653 35.8472 3.85664 35.4736 4.45926 35.4736C5.04442 35.4736 5.3404 35.855 5.3404 36.542V38.7973H6.23124V36.5508C6.23124 35.8472 6.63785 35.4736 7.22301 35.4736C7.82466 35.4736 8.11288 35.855 8.11288 36.542V38.7973H9.00372Z" fill="white"/>
<path d="M31.4282 27.8665H18.0737V3.86621H31.4282V27.8665Z" fill="#9E9E9E"/>
<path d="M18.9293 15.8643C18.9293 10.9957 21.2088 6.65891 24.7586 3.86412C22.1627 1.82042 18.8866 0.600614 15.3262 0.600614C6.89715 0.600614 0.0644531 7.43428 0.0644531 15.8643C0.0644531 24.2943 6.89715 31.1279 15.3262 31.1279C18.8866 31.1279 22.1627 29.9081 24.7586 27.8644C21.2088 25.0696 18.9293 20.7328 18.9293 15.8643Z" fill="#B4B4B4"/>
<path d="M49.4393 15.8643C49.4393 24.2943 42.6066 31.1279 34.1775 31.1279C30.6171 31.1279 27.341 29.9081 24.7441 27.8644C28.2949 25.0696 30.5744 20.7328 30.5744 15.8643C30.5744 10.9957 28.2949 6.65891 24.7441 3.86412C27.341 1.82042 30.6171 0.600614 34.1775 0.600614C42.6066 0.600614 49.4393 7.43428 49.4393 15.8643Z" fill="white"/>
</svg>
