<svg width="74" height="21" viewBox="0 0 74 21" fill="none" xmlns="http://www.w3.org/2000/svg">
<path fill-rule="evenodd" clip-rule="evenodd" d="M52.3325 0.248047C52.6983 4.86828 57.0693 8.51632 62.4076 8.51632C62.4251 8.51632 73.3267 8.51632 73.3267 8.51632C73.4072 8.09259 73.4494 7.65524 73.4494 7.20805C73.4494 3.38076 70.3615 0.27636 66.5417 0.248239L52.3325 0.248047Z" fill="#B4B4B4"/>
<path fill-rule="evenodd" clip-rule="evenodd" d="M53.1699 9.56299V20.8664H59.4496V14.1681H66.5666C69.562 14.1459 72.1064 12.2325 73.0659 9.56299H53.1699Z" fill="white"/>
<path fill-rule="evenodd" clip-rule="evenodd" d="M43.0387 8.40637L43.0436 8.39583L43.0443 8.39599C43.1086 8.28047 43.232 8.20233 43.3736 8.20233C43.5782 8.20233 43.7447 8.36538 43.7503 8.56861L43.7504 8.56865V20.7617H50.0301V0.248047H43.7504C42.9541 0.274553 42.0544 0.858914 41.7199 1.57623L36.7224 12.2933C36.7101 12.3371 36.6908 12.378 36.6658 12.4147L36.6642 12.4183L36.6635 12.4181C36.5879 12.5269 36.462 12.5981 36.3194 12.5981C36.0882 12.5981 35.9008 12.4107 35.9008 12.1795V0.248047H29.6211V20.7617H35.9008V20.7594C36.6884 20.7183 37.567 20.1405 37.8966 19.4335L43.0258 8.43401C43.0297 8.4246 43.034 8.41538 43.0387 8.40637Z" fill="white"/>
<path fill-rule="evenodd" clip-rule="evenodd" d="M19.5892 8.75752L15.919 20.7622H11.4015L7.72908 8.75023C7.69366 8.55788 7.5251 8.41214 7.32251 8.41214C7.09419 8.41214 6.9091 8.59724 6.9091 8.82556C6.9091 8.8273 6.90911 8.82905 6.90913 8.83079L6.9091 20.7622H0.629395V0.248535H6.01947H7.62474C8.78023 0.248535 9.99109 1.14526 10.3288 2.2497L13.3849 12.246C13.537 12.7433 13.7837 12.7428 13.9356 12.246L16.9917 2.2497C17.3296 1.14448 18.5401 0.248535 19.6958 0.248535L21.3006 0.248535H26.6902V20.7622H20.4105V8.83079C20.4104 8.82905 20.4105 8.8273 20.4105 8.82556C20.4105 8.59724 20.2254 8.41214 19.997 8.41214C19.7919 8.41214 19.6216 8.56157 19.5892 8.75752Z" fill="white"/>
</svg>
