<svg width="48" height="22" viewBox="0 0 48 22" fill="none" xmlns="http://www.w3.org/2000/svg">
<path d="M28.3337 20.9769H23.1104L26.3774 0.704102H31.6005L28.3337 20.9769Z" fill="white"/>
<path d="M47.2698 1.20001C46.2395 0.789816 44.6054 0.336914 42.5848 0.336914C37.4266 0.336914 33.7942 3.09732 33.7719 7.04387C33.729 9.95562 36.3726 11.5729 38.3497 12.5437C40.3706 13.5358 41.0575 14.1834 41.0575 15.0677C41.037 16.4258 39.4246 17.0518 37.9207 17.0518C35.8353 17.0518 34.7179 16.7291 33.0198 15.9735L32.332 15.6496L31.6011 20.2004C32.8262 20.7605 35.0832 21.2575 37.4266 21.2793C42.9073 21.2793 46.4754 18.5616 46.5177 14.3559C46.5385 12.0481 45.1427 10.2798 42.1332 8.83483C40.3063 7.90725 39.1875 7.28178 39.1875 6.3327C39.2089 5.46989 40.1338 4.58616 42.1961 4.58616C43.8941 4.54288 45.1418 4.95249 46.087 5.3624L46.5594 5.57767L47.2698 1.20001Z" fill="white"/>
<path d="M18.7481 0.704102L13.6327 14.5282L13.0737 11.7245C12.128 8.48942 9.16197 4.97456 5.85205 3.22688L10.5376 20.9554H16.0611L24.2714 0.704102H18.7481Z" fill="white"/>
<path d="M8.88245 0.704102H0.478553L0.392578 1.11372C6.94814 2.79605 11.2898 6.85123 13.0735 11.7254L11.2466 2.40821C10.9459 1.11343 10.0216 0.746812 8.88245 0.704102Z" fill="#B4B4B4"/>
</svg>
