<svg width="20" height="13" viewBox="0 0 20 13" fill="none" xmlns="http://www.w3.org/2000/svg">
<path d="M16.2011 7.15391C15.8854 6.75529 15.9757 6.57795 16.2011 6.22163C16.2051 6.21756 18.8108 2.61696 19.0793 1.39588L19.0809 1.39507C19.2143 0.950078 19.0809 0.623047 18.4358 0.623047H16.3011C15.7577 0.623047 15.5071 0.903708 15.3729 1.21772C15.3729 1.21772 14.2861 3.81933 12.7485 5.50574C12.2523 5.99303 12.0229 6.14923 11.752 6.14923C11.6186 6.14923 11.4111 5.99303 11.4111 5.54804V1.39507C11.4111 0.861405 11.259 0.623047 10.8091 0.623047H7.45257C7.11171 0.623047 6.90915 0.871981 6.90915 1.10383C6.90915 1.60984 7.67792 1.72617 7.75764 3.14981V6.23871C7.75764 6.91555 7.6348 7.04002 7.36227 7.04002C6.63662 7.04002 4.87537 4.42784 3.83164 1.43818C3.62094 0.858151 3.41512 0.62386 2.86763 0.62386H0.73216C0.12284 0.62386 0 0.904522 0 1.21854C0 1.77335 0.725652 4.53197 3.37444 8.1765C5.13976 10.6642 7.62585 12.0122 9.88741 12.0122C11.2468 12.0122 11.4127 11.7128 11.4127 11.1979C11.4127 8.8208 11.2899 8.59627 11.9708 8.59627C12.2865 8.59627 12.8299 8.75246 14.099 9.95239C15.5494 11.3752 15.7878 12.0122 16.5997 12.0122H18.7343C19.3428 12.0122 19.6512 11.7128 19.4738 11.1222C19.0679 9.87999 16.3247 7.32475 16.2011 7.15391Z" fill="#FFD02B"/>
</svg>
