<svg width="26" height="16" viewBox="0 0 26 16" fill="none" xmlns="http://www.w3.org/2000/svg">
<path d="M21.3724 9.07105C20.9682 8.5605 21.0838 8.33335 21.3724 7.87698C21.3777 7.87177 24.715 3.26011 25.0588 1.69615L25.0609 1.69511C25.2318 1.12516 25.0609 0.706299 24.2347 0.706299H21.5006C20.8046 0.706299 20.4837 1.06577 20.3117 1.46796C20.3117 1.46796 18.9197 4.80011 16.9504 6.96006C16.3148 7.58419 16.021 7.78425 15.674 7.78425C15.5032 7.78425 15.2375 7.58419 15.2375 7.01425V1.69511C15.2375 1.01159 15.0426 0.706299 14.4664 0.706299H10.1673C9.73077 0.706299 9.47132 1.02513 9.47132 1.32209C9.47132 1.97018 10.456 2.11918 10.5581 3.94259V7.89886C10.5581 8.76576 10.4007 8.92518 10.0517 8.92518C9.12227 8.92518 6.86646 5.57948 5.52964 1.75033C5.25978 1.00742 4.99616 0.707341 4.29493 0.707341H1.55982C0.779404 0.707341 0.62207 1.06681 0.62207 1.469C0.62207 2.17961 1.55149 5.71285 4.94407 10.3808C7.20509 13.5671 10.3893 15.2936 13.2859 15.2936C15.027 15.2936 15.2395 14.9101 15.2395 14.2506C15.2395 11.206 15.0822 10.9184 15.9543 10.9184C16.3586 10.9184 17.0546 11.1185 18.6801 12.6553C20.5378 14.4777 20.8431 15.2936 21.883 15.2936H24.6171C25.3964 15.2936 25.7913 14.9101 25.5642 14.1537C25.0443 12.5626 21.5308 9.28986 21.3724 9.07105Z" fill="white"/>
</svg>
