<svg width="26" height="18" viewBox="0 0 26 18" fill="none" xmlns="http://www.w3.org/2000/svg">
<path d="M24.8273 2.73808C24.5464 1.69357 23.7229 0.870186 22.6785 0.58893C20.7706 0.0668945 13.1387 0.0668945 13.1387 0.0668945C13.1387 0.0668945 5.50712 0.0668945 3.59919 0.569138C2.57491 0.850096 1.7313 1.69372 1.45034 2.73808C0.948242 4.64586 0.948242 8.60235 0.948242 8.60235C0.948242 8.60235 0.948242 12.5788 1.45034 14.4666C1.73159 15.511 2.55483 16.3344 3.59934 16.6156C5.52721 17.1378 13.139 17.1378 13.139 17.1378C13.139 17.1378 20.7706 17.1378 22.6785 16.6356C23.723 16.3545 24.5464 15.5311 24.8276 14.4867C25.3296 12.5788 25.3296 8.62244 25.3296 8.62244C25.3296 8.62244 25.3497 4.64586 24.8273 2.73808ZM10.7089 12.2575V4.94721L17.0551 8.60235L10.7089 12.2575Z" fill="#FFD02B"/>
</svg>
