<svg width="32" height="23" viewBox="0 0 32 23" fill="none" xmlns="http://www.w3.org/2000/svg">
<path d="M31.0956 3.98902C30.7358 2.6512 29.681 1.59661 28.3434 1.23637C25.8997 0.567749 16.1248 0.567749 16.1248 0.567749C16.1248 0.567749 6.35026 0.567749 3.90658 1.21102C2.59468 1.57088 1.51417 2.65139 1.15431 3.98902C0.51123 6.43251 0.51123 11.5 0.51123 11.5C0.51123 11.5 0.51123 16.593 1.15431 19.011C1.51455 20.3486 2.56895 21.4032 3.90677 21.7634C6.37599 22.4322 16.1252 22.4322 16.1252 22.4322C16.1252 22.4322 25.8997 22.4322 28.3434 21.7889C29.6812 21.4289 30.7358 20.3743 31.096 19.0367C31.7389 16.593 31.7389 11.5257 31.7389 11.5257C31.7389 11.5257 31.7647 6.43251 31.0956 3.98902ZM13.0127 16.1815V6.81847L21.141 11.5L13.0127 16.1815Z" fill="white"/>
</svg>
